<?xml version="1.0" encoding="UTF-8" standalone="no"?>
<!DOCTYPE svg PUBLIC "-//W3C//DTD SVG 1.1//EN" "http://www.w3.org/Graphics/SVG/1.1/DTD/svg11.dtd">
<svg width="100%" height="100%" viewBox="0 0 512 512" version="1.1" xmlns="http://www.w3.org/2000/svg" xmlns:xlink="http://www.w3.org/1999/xlink" xml:space="preserve" xmlns:serif="http://www.serif.com/" style="fill-rule:evenodd;clip-rule:evenodd;stroke-linejoin:round;stroke-miterlimit:2;">
    <g transform="matrix(0.227129,0,0,0.227129,2.67232,-0.895627)">
        <path d="M483.821,303.702C739.699,496.456 1014.97,887.23 1116,1096.93L1116,1650.82C1116,1639.03 1111.47,1652.35 1101.7,1681.06C1048.97,1836.46 842.999,2442.97 372.012,1958.1C124.016,1702.82 238.824,1447.53 690.246,1370.46C431.997,1414.54 141.662,1341.69 62.008,1056.06C39.06,973.895 0,467.789 0,399.434C0,57.031 299.193,164.655 483.821,303.702ZM1748.18,303.702C1492.3,496.456 1217.03,887.23 1116,1096.93L1116,1650.82C1116,1639.03 1120.53,1652.35 1130.3,1681.06C1183.03,1836.46 1389,2442.97 1859.99,1958.1C2107.99,1702.82 1993.18,1447.53 1541.75,1370.46C1800,1414.54 2090.34,1341.69 2169.99,1056.06C2192.94,973.895 2232,467.789 2232,399.434C2232,57.031 1932.84,164.655 1748.18,303.702Z" style="fill-rule:nonzero;"/>
    </g>
</svg>
